<svg width="162" height="164" viewBox="0 0 162 164" fill="none" xmlns="http://www.w3.org/2000/svg">
<g opacity="0.16">
<path d="M78.1516 242.493C93.08 228.688 108.844 207.625 111.02 187.009C111.685 180.703 110.401 174.423 109.69 168.188C108.683 159.351 108.513 150.149 108.282 141.209C107.949 128.365 103.754 116.846 98.086 105.337C91.3329 91.6238 80.3174 79.7014 70.4375 68.461C60.3687 57.0058 39.7124 45.4385 24.479 42.7718C18.8091 41.7792 11.9047 42.308 6.16378 42.1723C-0.40228 42.0173 -6.95046 42.9206 -13.2293 44.8475C-24.409 48.2943 -34.653 54.6107 -45.6071 58.9124C-55.2408 62.8336 -64.2652 68.1102 -72.4072 74.5826C-75.1052 76.7586 -81.7332 86.6285 -83.9251 86.154" stroke="black" stroke-miterlimit="10"/>
<path d="M10.022 163.607C17.7584 161.263 14.4697 150.576 10.5628 146.219C5.07332 140.097 -2.64836 143.006 -7.54819 148.188" stroke="black" stroke-miterlimit="10"/>
<path d="M17.1947 170.778C27.4146 168.211 20.5101 148.559 16.8936 143.068C12.5079 136.409 8.90049 132.768 0.989832 133.844C-4.14786 134.543 -11.3486 134.844 -14.7186 139.582" stroke="black" stroke-miterlimit="10"/>
<path d="M22.9316 180.102C38.7978 164.045 32.1699 145.044 18.2337 130.226C10.3476 121.84 4.16797 121.511 -6.02695 124.542C-12.9454 126.687 -19.1649 130.642 -24.042 135.997" stroke="black" stroke-miterlimit="10"/>
<path d="M29.7436 191.218C33.6734 187.504 36.7204 182.957 38.6605 177.91C40.6006 172.864 41.3843 167.446 40.9539 162.057C39.9336 152.054 30.9817 141.02 25.6174 132.948C18.4636 122.182 10.1509 117.509 -3.3865 118C-14.3673 118.398 -26.6289 123.314 -35.8759 129.184" stroke="black" stroke-miterlimit="10"/>
<path d="M34.7646 199.105C42.9516 191.335 45.5911 178.656 48.0005 168.257C50.8825 155.82 44.2799 144.089 39.1478 133.03C34.9762 124.04 27.4754 114.336 17.7272 112.087C6.3156 109.455 -6.70153 111.084 -18.0248 114.203C-22.2759 115.374 -27.0846 116.14 -31.1842 117.643C-34.7414 118.947 -38.2896 122.429 -41.6123 123.445" stroke="black" stroke-miterlimit="10"/>
<path d="M40.1433 207.351C44.6668 203.264 49.4628 195.692 52.5361 190.295C55.3125 185.421 57.8977 180.484 58.6966 174.901C61.0211 158.66 54.4294 143.948 47.3945 129.964C42.8232 120.878 33.3005 108.187 24.1419 103.325C12.1163 96.9413 -8.43794 100.661 -20.9464 103.524C-28.9963 105.366 -34.3913 110.216 -41.4968 113.989C-43.7789 115.201 -50.9508 119.936 -51.6525 119.859" stroke="black" stroke-miterlimit="10"/>
<path d="M46.2386 216.318C54.5758 206.472 63.0795 189.778 67.3934 177.431C71.8975 164.538 63.3382 146.086 58.5272 134.046C52.9057 119.979 45.1204 97.7121 30.9475 90.6065C12.6068 81.4112 -7.21707 85.8096 -24.4425 94.734C-35.1226 100.267 -45.9312 108.559 -55.9556 114.123" stroke="black" stroke-miterlimit="10"/>
<path d="M54.8441 225.639C61.759 219.374 66.7725 207.405 71.3035 199.283C73.3571 195.601 76.8979 192.34 78.3403 188.372C80.0749 183.6 79.7972 177.415 80.1333 172.4C81.5884 150.695 69.485 129.834 58.4816 111.664C53.3862 103.249 48.5201 94.5495 41.1141 87.8418C35.1221 82.4146 29.6212 81.7437 21.8481 80.6933C14.2279 79.4202 6.48713 79.0229 -1.22334 79.5091C-10.0479 80.2426 -17.2033 83.9324 -25.1274 87.5962C-39.4412 94.2148 -50.9084 102.879 -63.1276 111.97" stroke="black" stroke-miterlimit="10"/>
<path d="M64.1656 234.247C78.5447 219.199 93.3188 202.56 92.4753 180.469C91.6989 160.136 87.3847 137.883 78.982 119.557C69.5665 99.0228 56.2259 86.0723 36.5264 75.3893C21.3687 67.1693 -1.8451 65.8544 -17.5238 73.1119C-36.5718 81.9289 -54.5002 94.2823 -72.8106 103.725" stroke="black" stroke-miterlimit="10"/>
<path d="M70.2645 240.341C72.9505 232.352 82.2404 224.793 86.93 217.062C91.1161 210.16 96.994 204.544 98.3039 196.211C99.2821 189.311 99.0015 182.291 97.4758 175.491C95.1885 163.23 97.6091 150.973 96.4859 138.644C95.3922 126.639 93.0508 115.186 86.764 104.749C82.9095 98.3506 77.1236 93.4043 72.4847 87.511C67.9818 81.7903 63.8159 75.7026 58.0294 71.0151C46.8852 61.9875 31.5843 53.8263 16.8902 54.083C11.5125 54.1768 4.16384 54.7234 -0.899764 56.5566C-5.98569 58.3979 -10.3074 61.0254 -15.8728 62.1009C-28.4004 64.5217 -39.3982 71.9414 -50.3914 78.4578C-56.65 82.1676 -63.2813 85.771 -68.9597 90.3764C-72.6555 93.3739 -76.3759 98.121 -80.6964 99.4206" stroke="black" stroke-miterlimit="10"/>
</g>
</svg>
