<svg width="166" height="159" viewBox="0 0 166 159" fill="none" xmlns="http://www.w3.org/2000/svg">
<g opacity="0.16">
<path d="M83.7972 -80.1516C98.5152 -66.5407 114.057 -45.7743 116.202 -25.4492C116.858 -19.2319 115.592 -13.0404 114.891 -6.89327C113.898 1.81881 113.731 10.8919 113.503 19.7051C113.175 32.3682 109.039 43.7252 103.451 55.0723C96.7927 68.5919 85.9325 80.3463 76.1918 91.4282C66.2649 102.722 45.8997 114.126 30.881 116.755C25.291 117.734 18.4839 117.213 12.8239 117.347C6.35036 117.499 -0.105538 116.609 -6.29593 114.709C-17.318 111.311 -27.4177 105.083 -38.2174 100.842C-47.7153 96.9764 -56.6126 91.7741 -64.6398 85.3929C-67.2998 83.2476 -73.8344 73.5168 -75.9954 73.9846" stroke="black" stroke-miterlimit="10"/>
<path d="M16.6282 -2.37743C24.2555 -0.0665661 21.0132 10.4697 17.1614 14.7654C11.7493 20.8013 4.1364 17.933 -0.694372 12.8241" stroke="black" stroke-miterlimit="10"/>
<path d="M23.6977 -9.4475C33.7736 -6.9169 26.9664 12.4582 23.4009 17.872C19.0769 24.4371 15.5204 28.0267 7.72122 26.966C2.65593 26.277 -4.44337 25.9798 -7.76584 21.3089" stroke="black" stroke-miterlimit="10"/>
<path d="M29.3561 -18.6397C44.9987 -2.80958 38.4642 15.924 24.7245 30.5334C16.9495 38.8007 10.8569 39.1256 0.805657 36.137C-6.01525 34.0224 -12.1472 30.1235 -16.9555 24.8437" stroke="black" stroke-miterlimit="10"/>
<path d="M36.0722 -29.6005C39.9466 -25.9395 42.9507 -21.4562 44.8634 -16.4808C46.7762 -11.5053 47.5488 -6.16421 47.1245 -0.85065C46.1186 9.01146 37.2928 19.8898 32.0041 27.8482C24.9512 38.4619 16.7556 43.0693 3.40898 42.5855C-7.41706 42.1931 -19.5058 37.3465 -28.6226 31.559" stroke="black" stroke-miterlimit="10"/>
<path d="M41.0195 -37.3732C49.0911 -29.7129 51.6934 -17.2128 54.0688 -6.96061C56.9102 5.30195 50.4007 16.8673 45.3409 27.7707C41.2281 36.6338 33.833 46.2009 24.2221 48.4178C12.9714 51.013 0.137715 49.4068 -11.0259 46.332C-15.2172 45.1777 -19.9581 44.422 -24 42.9403C-27.507 41.6546 -31.0052 38.2219 -34.2811 37.2203" stroke="black" stroke-miterlimit="10"/>
<path d="M46.3243 -45.5051C50.7841 -41.4758 55.5125 -34.0099 58.5425 -28.6897C61.2798 -23.8837 63.8285 -19.0161 64.6162 -13.5126C66.9079 2.4997 60.4091 17.005 53.4734 30.7913C48.9665 39.7497 39.578 52.2616 30.5485 57.0551C18.6924 63.3489 -1.57225 59.6817 -13.9044 56.8594C-21.8409 55.043 -27.1599 50.2616 -34.1652 46.5411C-36.4152 45.3464 -43.486 40.6785 -44.1778 40.7546" stroke="black" stroke-miterlimit="10"/>
<path d="M52.3334 -54.3438C60.5531 -44.6372 68.937 -28.1787 73.1901 -16.005C77.6307 -3.29434 69.192 14.8981 64.4489 26.7678C58.9066 40.6375 51.231 62.5901 37.2578 69.5956C19.1756 78.6614 -0.368955 74.325 -17.3516 65.5263C-27.8812 60.0711 -38.5375 51.896 -48.4207 46.4103" stroke="black" stroke-miterlimit="10"/>
<path d="M60.8169 -63.5355C67.6343 -57.3583 72.5772 -45.5578 77.0443 -37.5503C79.0689 -33.921 82.5599 -30.7052 83.982 -26.793C85.6921 -22.0887 85.4183 -15.9906 85.7496 -11.0468C87.1843 10.3524 75.2515 30.9193 64.4031 48.834C59.3795 57.1297 54.582 65.7069 47.2803 72.3201C41.3728 77.6708 35.9494 78.3322 28.2858 79.3678C20.7731 80.623 13.1414 81.0147 5.53955 80.5353C-3.16068 79.8121 -10.2152 76.1744 -18.0277 72.5622C-32.1397 66.0369 -43.4453 57.4947 -55.4923 48.5315" stroke="black" stroke-miterlimit="10"/>
<path d="M70.0107 -72.0186C84.1872 -57.1828 98.7531 -40.7783 97.9215 -18.9984C97.156 1.04808 92.9026 22.9878 84.6184 41.0547C75.3355 61.2999 62.1829 74.068 42.761 84.6004C27.817 92.7046 4.93029 94.001 -10.5274 86.8457C-29.307 78.1529 -46.9827 65.9737 -65.0352 56.6638" stroke="black" stroke-miterlimit="10"/>
<path d="M76.0199 -78.0321C78.6681 -70.1555 87.8271 -62.7034 92.4506 -55.0807C96.5777 -48.2763 102.373 -42.7395 103.664 -34.5239C104.629 -27.7211 104.352 -20.7998 102.848 -14.0957C100.593 -2.00729 102.979 10.0766 101.872 22.2321C100.794 34.068 98.4851 45.3598 92.287 55.649C88.4868 61.9576 82.7824 66.8342 78.2089 72.6444C73.7694 78.2845 69.6623 84.2864 63.9573 88.9079C52.9702 97.8082 37.8849 105.854 23.3978 105.601C18.0959 105.509 10.8508 104.97 5.85858 103.163C0.844322 101.347 -3.41652 98.7567 -8.90347 97.6964C-21.2545 95.3097 -32.0974 87.9946 -42.9356 81.57C-49.106 77.9125 -55.6439 74.3598 -61.2422 69.8194C-64.886 66.8641 -68.5539 62.1839 -72.8135 60.9026" stroke="black" stroke-miterlimit="10"/>
</g>
</svg>
