<svg width="168" height="168" viewBox="0 0 168 168" fill="none" xmlns="http://www.w3.org/2000/svg">
<g opacity="0.16">
<path d="M83.3005 -75.0403C68.3721 -61.2349 52.6077 -40.1717 50.4326 -19.556C49.7674 -13.2498 51.0514 -6.96978 51.7621 -0.73481C52.7696 8.10179 52.939 17.3045 53.1705 26.2437C53.5033 39.0879 57.6983 50.6072 63.3662 62.1165C70.1193 75.8293 81.1347 87.7518 91.0146 98.9921C101.083 110.447 121.74 122.015 136.973 124.681C142.643 125.674 149.547 125.145 155.288 125.281C161.854 125.436 168.403 124.533 174.681 122.606C185.861 119.159 196.105 112.842 207.059 108.541C216.693 104.62 225.717 99.3429 233.859 92.8705C236.557 90.6946 243.185 80.8246 245.377 81.2992" stroke="black" stroke-miterlimit="10"/>
<path d="M151.43 3.84634C143.694 6.19023 146.982 16.8771 150.889 21.2342C156.379 27.3563 164.101 24.4471 169 19.2652" stroke="black" stroke-miterlimit="10"/>
<path d="M144.257 -3.32504C134.038 -0.758269 140.942 18.8938 144.559 24.3849C148.944 31.0439 152.552 34.6849 160.462 33.6089C165.6 32.9101 172.801 32.6087 176.171 27.871" stroke="black" stroke-miterlimit="10"/>
<path d="M138.521 -12.6487C122.654 3.40772 129.282 22.409 143.218 37.2273C151.105 45.6128 157.284 45.9424 167.479 42.911C174.398 40.7662 180.617 36.8116 185.494 31.4563" stroke="black" stroke-miterlimit="10"/>
<path d="M131.709 -23.7645C127.779 -20.0512 124.732 -15.5038 122.792 -10.4572C120.852 -5.41062 120.068 0.00679243 120.498 5.39631C121.519 15.3994 130.47 26.4332 135.835 34.5054C142.989 45.2707 151.301 49.9441 164.839 49.4534C175.819 49.0553 188.081 44.1394 197.328 38.2692" stroke="black" stroke-miterlimit="10"/>
<path d="M126.688 -31.6515C118.501 -23.8818 115.861 -11.2031 113.452 -0.804274C110.57 11.6336 117.172 23.3642 122.304 34.4235C126.476 43.4133 133.977 53.1172 143.725 55.3657C155.137 57.998 168.154 56.3689 179.477 53.2501C183.728 52.0793 188.537 51.3128 192.636 49.8099C196.194 48.5058 199.742 45.0241 203.064 44.0081" stroke="black" stroke-miterlimit="10"/>
<path d="M121.309 -39.8982C116.785 -35.8112 111.989 -28.2387 108.916 -22.8424C106.14 -17.9677 103.554 -13.0305 102.756 -7.44831C100.431 8.79282 107.023 23.5055 114.058 37.4888C118.629 46.5753 128.152 59.2661 137.31 64.1281C149.336 70.5118 169.89 66.7922 182.399 63.9295C190.448 62.0872 195.843 57.2374 202.949 53.4638C205.231 52.2519 212.403 47.5174 213.105 47.5945" stroke="black" stroke-miterlimit="10"/>
<path d="M115.214 -48.8641C106.876 -39.0188 98.3726 -22.325 94.0587 -9.97729C89.5546 2.91503 98.1139 21.3675 102.925 33.4069C108.546 47.4748 116.332 69.7412 130.505 76.8469C148.845 86.0422 168.669 81.6438 185.895 72.7194C196.575 67.1862 207.383 58.8942 217.408 53.3301" stroke="black" stroke-miterlimit="10"/>
<path d="M106.608 -58.1859C99.6932 -51.9204 94.6796 -39.9512 90.1486 -31.8293C88.0951 -28.1481 84.5542 -24.8863 83.1118 -20.9182C81.3773 -16.1467 81.655 -9.96141 81.3189 -4.94693C79.8637 16.7582 91.9671 37.619 102.971 55.7899C108.066 64.2041 112.932 72.9039 120.338 79.6116C126.33 85.0388 131.831 85.7097 139.604 86.7601C147.224 88.0332 154.965 88.4305 162.675 87.9443C171.5 87.2107 178.655 83.521 186.58 79.8572C200.893 73.2386 212.361 64.5743 224.58 55.483" stroke="black" stroke-miterlimit="10"/>
<path d="M97.2866 -66.7941C82.9074 -51.7462 68.1333 -35.1073 68.9768 -13.016C69.7532 7.31695 74.0675 29.5703 82.4701 47.8954C91.8856 68.43 105.226 81.3806 124.926 92.0636C140.083 100.284 163.297 101.599 178.976 94.341C198.024 85.5239 215.952 73.1706 234.263 63.7277" stroke="black" stroke-miterlimit="10"/>
<path d="M91.1877 -72.8883C88.5016 -64.8991 79.2117 -57.3406 74.5222 -49.6089C70.336 -42.7072 64.4582 -37.0913 63.1482 -28.7583C62.1701 -21.8582 62.4507 -14.838 63.9764 -8.0381C66.2636 4.22312 63.843 16.4798 64.9662 28.809C66.0599 40.814 68.4014 52.2673 74.6881 62.7036C78.5426 69.1023 84.3285 74.0486 88.9674 79.9419C93.4704 85.6626 97.6362 91.7503 103.423 96.4378C114.567 105.465 129.868 113.627 144.562 113.37C149.94 113.276 157.288 112.729 162.352 110.896C167.438 109.055 171.76 106.427 177.325 105.352C189.853 102.931 200.85 95.5115 211.844 88.9951C218.102 85.2853 224.733 81.6818 230.412 77.0765C234.108 74.079 237.828 69.3319 242.149 68.0322" stroke="black" stroke-miterlimit="10"/>
</g>
</svg>
