<svg width="153" height="168" viewBox="0 0 153 168" fill="none" xmlns="http://www.w3.org/2000/svg">
<g opacity="0.16">
<path d="M87.5818 243.673C71.9607 231.109 55.0242 211.463 51.484 191.334C50.4012 185.177 51.2374 178.913 51.5128 172.732C51.9032 163.972 51.4446 154.909 51.0649 146.101C50.5194 133.446 53.8628 121.831 58.6554 110.126C64.3657 96.1793 74.39 83.7043 83.3437 71.9774C92.4687 60.0262 111.999 47.2455 126.801 43.5876C132.311 42.226 139.137 42.2769 144.775 41.7533C151.222 41.1547 157.724 41.5983 164.031 43.0668C175.261 45.6973 185.766 51.2138 196.832 54.7005C206.574 57.9026 215.809 62.4793 224.256 68.2921C227.058 70.249 234.248 79.5063 236.371 78.8906" stroke="black" stroke-miterlimit="10"/>
<path d="M149.231 161.455C141.462 159.675 143.971 148.94 147.517 144.389C152.501 137.995 160.293 140.332 165.465 145.095" stroke="black" stroke-miterlimit="10"/>
<path d="M142.666 168.996C132.439 167.165 137.895 147.367 141.079 141.721C144.94 134.873 148.241 131.047 156.094 131.568C161.195 131.906 168.298 131.713 171.935 136.144" stroke="black" stroke-miterlimit="10"/>
<path d="M137.654 178.556C120.958 163.842 126.186 144.702 138.886 129.18C146.072 120.397 152.128 119.653 162.361 121.942C169.312 123.581 175.698 127.048 180.859 131.984" stroke="black" stroke-miterlimit="10"/>
<path d="M131.709 189.953C127.592 186.568 124.286 182.302 122.035 177.471C119.784 172.639 118.645 167.364 118.702 162.034C119.026 152.126 127.081 140.665 131.808 132.361C138.113 121.286 145.972 116.125 159.32 115.688C170.147 115.333 182.541 119.335 192.035 124.48" stroke="black" stroke-miterlimit="10"/>
<path d="M127.31 198.049C118.729 190.963 115.272 178.672 112.195 168.608C108.515 156.57 114.212 144.584 118.509 133.357C122.001 124.232 128.719 114.178 138.154 111.304C149.199 107.939 162.113 108.657 173.462 110.955C177.723 111.818 182.505 112.245 186.639 113.445C190.226 114.486 193.953 117.669 197.29 118.443" stroke="black" stroke-miterlimit="10"/>
<path d="M122.578 206.527C117.851 202.814 112.619 195.692 109.23 190.593C106.168 185.987 103.29 181.307 102.125 175.871C98.7347 160.054 104.218 145.136 110.187 130.904C114.066 121.657 122.57 108.527 131.248 103.123C142.642 96.0269 163.111 98.2888 175.608 100.254C183.651 101.519 189.287 105.923 196.532 109.152C198.859 110.189 206.235 114.358 206.92 114.234" stroke="black" stroke-miterlimit="10"/>
<path d="M117.192 215.758C108.323 206.641 98.8247 190.8 93.7427 178.948C88.4366 166.574 95.6014 147.843 99.5152 135.675C104.088 121.456 110.233 99.0266 123.69 91.0747C141.104 80.7843 160.901 83.7634 178.45 91.3706C189.33 96.0871 200.525 103.508 210.763 108.3" stroke="black" stroke-miterlimit="10"/>
<path d="M109.362 225.513C102.135 219.82 96.391 208.389 91.3826 200.708C89.1127 197.227 85.4084 194.259 83.7201 190.455C81.6898 185.879 81.5427 179.777 80.8714 174.868C77.9653 153.618 88.4522 132.278 98.0401 113.658C102.48 105.036 106.675 96.1484 113.503 89.0476C119.028 83.3025 124.393 82.2689 131.967 80.7075C139.375 78.9376 146.962 78.0208 154.579 77.9751C163.308 78.097 170.597 81.2399 178.64 84.305C193.168 89.8422 205.035 97.5849 217.671 105.696" stroke="black" stroke-miterlimit="10"/>
<path d="M100.775 234.61C85.6099 220.786 69.948 205.424 69.2765 183.639C68.6586 163.588 71.3898 141.407 78.4091 122.812C86.2746 101.975 98.5159 88.3309 117.166 76.4849C131.516 67.37 154.259 64.4994 170.173 70.5722C189.507 77.9501 207.98 88.8821 226.631 96.9257" stroke="black" stroke-miterlimit="10"/>
<path d="M95.1945 241.023C92.0098 233.347 82.359 226.544 77.2211 219.258C72.6348 212.755 66.472 207.63 64.6173 199.523C63.1864 192.803 62.9854 185.879 64.024 179.087C65.4405 166.872 62.2268 154.982 62.4938 142.779C62.7538 130.897 64.2785 119.473 69.7527 108.781C73.1091 102.225 78.4638 96.9671 82.626 90.8554C86.6663 84.9227 90.3499 78.6521 95.7229 73.6484C106.07 64.0119 120.565 54.9452 135.035 54.1992C140.331 53.9261 147.596 53.9644 152.701 55.4234C157.828 56.8888 162.258 59.1795 167.805 59.8592C180.291 61.3889 191.612 67.9394 202.867 73.6017C209.275 76.8252 216.042 79.9188 221.94 84.0626C225.779 86.7597 229.761 91.176 234.099 92.1607" stroke="black" stroke-miterlimit="10"/>
</g>
</svg>
